<svg xmlns="http://www.w3.org/2000/svg" xml:space="preserve" style="fill-rule:evenodd;clip-rule:evenodd;stroke-linejoin:round;stroke-miterlimit:2" viewBox="0 0 540 540"><path d="M512.2 128c35.3 0 64 28.7 64 64v320c0 35.3-28.7 64-64 64h-192c-14.6 0-28-5-38.8-13.2l137.9-36.9c59.7-16 95.2-77.4 79.2-137.2L428.6 128h83.6ZM290.9 46.8c34.1-9.2 69.2 11.1 78.4 45.2l82.8 309.1c9.1 34.1-11.1 69.2-45.2 78.4l-185.5 49.7c-34.1 9.2-69.2-11.1-78.4-45.2L60.2 174.9c-9.2-34.2 11.1-69.3 45.2-78.4l185.5-49.7Z" style="fill:#ff3e00;fill-rule:nonzero" transform="translate(-51.16 -40.292)"/></svg>